<svg xmlns="http://www.w3.org/2000/svg" xml:space="preserve" viewBox="0 0 256 256">
 <defs>
    <linearGradient id="x" x1="0" y1="0" x2="100%" y2="100%">
      <stop offset="0" stop-color="#111"></stop>
      <stop offset="1" stop-color="#333"></stop>
    </linearGradient>
  </defs>
  <rect fill="url(#x)" x="0" y="0" width="100%" height="100%" rx="10%"></rect>

  <g transform="scale(0.5) translate(22.5,30)" fill="#fff">
    <path d="m209 326-91-38a10 10 0 0 0-14 9 62 62 0 0 0 109 45 10 10 0 0 0-4-16zm-43 18a42 42 0 0 1-41-31l61 25c-6 4-13 6-20 6z"/>
    <path d="M395 0c-5-1-10 2-11 7l-56 166a174 174 0 0 0-196 0L76 7a10 10 0 0 0-19 3v360c0 3 2 7 5 8l164 81 4 1 4-1 164-81c3-1 5-5 5-8V10c0-5-3-9-8-10zm-12 363-153 76-153-76V71l40 122a10 10 0 0 0 16 4 154 154 0 0 1 194 0 10 10 0 0 0 16-4l40-122v292z"/>
    <path d="M251 326a10 10 0 0 0-4 16 62 62 0 0 0 109-45 10 10 0 0 0-14-9l-91 38zm59 14a42 42 0 0 1-36-2l61-25c-4 12-12 22-25 27z"/>
  </g>
</svg>
